<svg width="1024" height="1024" viewBox="0 0 1024 1024" fill="none" xmlns="http://www.w3.org/2000/svg">
<path d="M275.764 0L275.763 266.352H507.291L507.292 0H516.704L516.703 266.352H748.232L748.233 0H757.644L757.643 266.352H1024V275.763H757.643V507.292H1024V516.704H757.643V748.232H1024V757.644H757.643L757.644 1023.99H748.233L748.232 757.644H516.703L516.704 1023.99H507.292L507.291 757.644H275.763L275.764 1023.99H266.352L266.351 757.644H0V748.232H266.351V516.704H0V507.292H266.351V275.763H0V266.352H266.351L266.352 0H275.764ZM507.291 516.704H275.763V748.232H507.291V516.704ZM748.232 516.704H516.703V748.232H748.232V516.704ZM507.291 275.763H275.763V507.292H507.291V275.763ZM748.232 275.763H516.703V507.292H748.232V275.763Z" fill="black"/>
</svg>
