<svg width="1024" height="746" viewBox="0 0 1024 746" fill="none" xmlns="http://www.w3.org/2000/svg">
<path d="M588.178 127.958V170.438H565.116C557.249 170.438 549.695 170.871 542.574 171.859V130.03C542.574 72.7858 510.703 42.9979 455.772 42.9979H132.405C77.4735 42.9979 45.8624 72.7858 45.8624 130.03V330.256C45.8624 387.758 77.4735 417.287 132.405 417.287H167.125C179.303 417.287 189.15 424.542 189.15 440.342V523.747L293.052 431.016C304.97 420.656 312.227 417.287 328.032 417.287H435.822V460.028H326.218L216.615 553.533C200.032 568.039 190.445 575.551 176.712 575.551C157.279 575.551 146.137 561.822 146.137 540.324V460.028H129.036C50.5263 460.028 0 413.661 0 332.328V127.958C0 46.8834 50.5263 0 129.036 0H459.141C537.652 0 588.178 46.8834 588.178 127.958Z" fill="black"/>
<path d="M324.405 106.718L408.875 332.068C414.314 347.611 406.283 362.634 389.182 362.634C378.299 362.634 371.562 356.677 367.418 344.76L345.133 282.078H243.821L221.538 344.76C217.392 356.677 210.656 362.634 199.773 362.634C182.931 362.634 174.38 347.868 180.081 332.068L264.291 106.718C269.472 92.7305 279.838 85.2189 294.349 85.2189C308.857 85.2189 319.221 92.7305 324.405 106.718ZM255.74 245.814H332.697L294.092 137.147L255.74 245.814Z" fill="black"/>
<path d="M1024 298.396V502.766C1024 583.84 973.474 630.464 894.963 630.464H877.86V710.503C877.86 732.003 866.719 745.989 847.287 745.989C833.553 745.989 823.967 738.218 807.384 723.972L698.04 630.464H565.116C483.498 630.464 435.822 584.1 435.822 503.024V298.396C435.822 217.062 483.498 170.438 565.116 170.438H894.963C973.474 170.438 1024 217.062 1024 298.396ZM627.043 325.853C615.385 325.853 606.573 334.142 606.573 345.02C606.573 356.417 615.385 364.706 627.043 364.706H653.99C662.802 397.861 679.642 428.945 704.259 455.365C680.679 471.683 654.25 482.563 622.899 490.075C611.498 492.663 605.019 503.544 607.351 514.681C610.46 526.856 622.639 531.776 635.852 528.41C671.093 520.378 703.999 505.355 734.055 482.82C763.077 505.098 795.983 520.121 829.149 528.15C843.917 531.518 856.355 527.373 859.465 514.681C862.575 502.766 856.873 492.663 844.437 490.075C813.343 482.82 787.431 471.943 763.334 455.365C787.691 429.462 804.534 398.638 813.343 364.706H840.29C851.951 364.706 860.76 356.417 860.76 345.02C860.76 334.142 851.951 325.853 840.29 325.853H627.043ZM734.055 431.016C715.918 411.59 702.444 389.055 694.413 364.706H772.923C765.149 388.795 751.933 411.33 734.055 431.016ZM702.704 240.115C692.598 245.037 688.453 256.693 693.635 267.312L710.996 303.836C715.66 314.196 727.579 318.342 737.682 313.679C748.566 308.239 752.71 296.582 747.529 286.481L729.911 250.217C724.729 239.338 713.328 234.676 702.704 240.115Z" fill="black"/>
</svg>
